<svg version="1.0" width="10pt" height="48pt" viewBox="0 0 240.677 198.406" id="svg2" xmlns="http://www.w3.org/2000/svg" xmlns:xlink="http://www.w3.org/1999/xlink">
  <g id="g2200" transform="matrix(1, 0, 0, 1, -7.870585, -28.763124)">
    <path d="M 248.23254,37.567021 C 248.23254,39.421 233.341,27.361714 210.92332,26.512802 C 188.50715,24.161264 158.56791,33.018571 128.47098,41.939411 C 98.374061,50.838819 68.122499,59.830085 45.08248,57.499214 C 22.042458,56.646475 6.2147412,44.472367 4.9670168,45.100057 C 4.9670168,49.976129 4.9670168,212.16336 4.9670168,217.04096 C 6.2017278,216.23874 21.874054,228.52232 44.764807,229.4363 C 67.654794,231.83529 97.763977,222.86699 127.87237,213.92855 C 157.98156,204.99929 188.09073,196.07231 210.97996,198.49122 C 233.87071,199.42357 249.54303,211.70178 250.77698,210.90033 C 250.77698,206.02272 250.77698,43.835492 250.77698,38.95942 C 249.50323,38.236811 248.23254,37.567021 248.23254,37.567021 z" style="fill:url(#linearGradient2192);fill-opacity:1" id="path30"></path>
    <polyline id="polyline3117" points="0,256 0,0 256,0 256,256 " style="fill:none"></polyline>
    <path d="M 248.35964,206.93022 C 168.11952,164.47777 87.88094,258.30582 7.6416,215.85719 C 7.6416,160.24164 7.6416,104.62608 7.6416,49.011311 C 87.88094,91.460711 168.12106,-2.3681051 248.35964,40.084351 C 248.35964,95.699911 248.35964,151.31544 248.35964,206.93022 z " style="fill:#000000;fill-opacity:1" id="path5190"></path>
    <path d="M 203.20002,86.13334 C 138.00532,85.371177 72.794472,141.35379 7.6000006,106.53334 C 7.6000006,112.05042 7.6000006,117.5496 7.6000006,123.06668 C 7.6000006,131.9207 7.6000006,140.74599 7.6000006,149.60001 C 7.6000006,154.6631 7.6000006,159.73692 7.6000006,164.80001 C 87.83935,206.25421 168.16144,114.67541 248.40002,156.13335 C 248.40002,150.98143 248.40002,145.81859 248.40002,140.66668 C 248.40002,131.92871 248.40002,123.13799 248.40002,114.40001 C 248.40002,108.76689 248.40002,103.09979 248.40002,97.466674 C 233.355,89.430603 218.24495,86.309225 203.20002,86.13334 z " style="fill:#ffffff;fill-opacity:1" id="path9462"></path>
    <path d="M 203.20002,28.800002 C 138.00532,28.05953 72.794472,82.496143 7.6000006,48.66667 C 7.6000006,54.579917 7.6000006,60.486546 7.6000006,66.400005 C 7.6000006,74.447643 7.6000006,82.485557 7.6000006,90.53334 C 7.6000006,96.134809 7.6000006,101.73182 7.6000006,107.33334 C 87.83935,148.03559 168.16144,58.094835 248.40002,98.800008 C 248.40002,93.109878 248.40002,87.42367 248.40002,81.73334 C 248.40002,73.774913 248.40002,65.825452 248.40002,57.866671 C 248.40002,51.864239 248.40002,45.869158 248.40002,39.86667 C 233.355,32.059305 218.24495,28.970881 203.20002,28.800002 z " style="fill:#007a3d;fill-opacity:1" id="path9466"></path>
    <g id="g3038" transform="matrix(0.999974, -0.29721, 0, 1, 3.758883, 37.680912)">
      <path style="fill:#ce1126" d="m 128.25028,104.53334 16.63529,51.19999 -43.55223,-31.64323 53.83395,0 -43.55224,31.64323 16.6353,-51.19999 z" id="1"></path>
    </g>
    <use transform="matrix(1, -0.079256, 0, 1, 80.347969, -2.803944)" id="use13" width="744.09448" height="1052.3622" xlink:href="#1"></use>
    <use transform="matrix(1, -0.069349, 0, 1, -72.783035, 24.761869)" id="use15" width="744.09448" height="1052.3622" xlink:href="#1"></use>
    <path d="M 248.35974,206.96001 C 168.11962,164.50832 87.879509,258.33713 7.6401612,215.88544 C 7.6401612,160.27066 7.6401612,104.65509 7.6401612,49.039546 C 87.879509,91.490468 168.11962,-2.3375794 248.35974,40.114878 C 248.35974,95.729664 248.35974,151.34523 248.35974,206.96001 z " style="fill:url(#linearGradient2198)" id="path3186"></path>
  </g>
</svg>